<mxfile host="app.diagrams.net" agent="Mozilla/5.0 (Windows NT 10.0; Win64; x64) AppleWebKit/537.36 (KHTML, like Gecko) Chrome/139.0.0.0 Safari/537.36" version="28.1.2">
  <diagram name="Arquitetura iDelivery Colorida" id="0">
    <mxGraphModel dx="1158" dy="506" grid="1" gridSize="10" guides="1" tooltips="1" connect="1" arrows="1" fold="1" page="1" pageScale="1" pageWidth="827" pageHeight="1169" math="0" shadow="0">
      <root>
        <mxCell id="0" />
        <mxCell id="1" parent="0" />
        <mxCell id="e1" value="" style="strokeColor=#0055FF;endArrow=block;rounded=0;entryX=0;entryY=0.5;entryDx=0;entryDy=0;exitX=1.019;exitY=0.5;exitDx=0;exitDy=0;exitPerimeter=0;fillColor=light-dark(#FFFFFF,transparent);" parent="1" source="VME0QEks1lH5eawWRZ92-13" target="VME0QEks1lH5eawWRZ92-11" edge="1">
          <mxGeometry as="geometry">
            <mxPoint x="70" y="360.0139130434783" as="sourcePoint" />
            <mxPoint x="160" y="360" as="targetPoint" />
            <mxPoint x="4" y="11" as="offset" />
          </mxGeometry>
        </mxCell>
        <mxCell id="e4" value="Registry" style="strokeColor=#FF8800;endArrow=block;rounded=0;exitX=0.047;exitY=1.015;exitDx=0;exitDy=0;entryX=0.977;entryY=0.034;entryDx=0;entryDy=0;exitPerimeter=0;entryPerimeter=0;" parent="1" source="VME0QEks1lH5eawWRZ92-7" target="VME0QEks1lH5eawWRZ92-10" edge="1">
          <mxGeometry as="geometry">
            <mxPoint x="860" y="200.96" as="sourcePoint" />
            <mxPoint x="628.6800000000001" y="344.99999999999994" as="targetPoint" />
          </mxGeometry>
        </mxCell>
        <mxCell id="e5" value="Registry" style="strokeColor=#FF8800;endArrow=block;rounded=0;exitX=0.018;exitY=0.033;exitDx=0;exitDy=0;entryX=0.995;entryY=0.967;entryDx=0;entryDy=0;exitPerimeter=0;entryPerimeter=0;" parent="1" source="VME0QEks1lH5eawWRZ92-8" target="VME0QEks1lH5eawWRZ92-10" edge="1">
          <mxGeometry as="geometry">
            <mxPoint x="826.6000000000001" y="564.98" as="sourcePoint" />
            <mxPoint x="594" y="400" as="targetPoint" />
          </mxGeometry>
        </mxCell>
        <mxCell id="e6" value="Discovery" style="strokeColor=#FF8800;endArrow=block;rounded=0;entryX=-0.006;entryY=0.541;entryDx=0;entryDy=0;exitX=1;exitY=0.538;exitDx=0;exitDy=0;entryPerimeter=0;exitPerimeter=0;" parent="1" source="VME0QEks1lH5eawWRZ92-11" target="VME0QEks1lH5eawWRZ92-10" edge="1">
          <mxGeometry as="geometry">
            <mxPoint x="380" y="360" as="sourcePoint" />
            <mxPoint x="480" y="360" as="targetPoint" />
          </mxGeometry>
        </mxCell>
        <mxCell id="e7" value="" style="strokeColor=#800080;endArrow=block;rounded=0;" parent="1" source="VME0QEks1lH5eawWRZ92-7" target="VME0QEks1lH5eawWRZ92-3" edge="1">
          <mxGeometry as="geometry">
            <mxPoint x="922.5000000000002" y="240" as="sourcePoint" />
            <mxPoint x="927.4999999999998" y="340" as="targetPoint" />
          </mxGeometry>
        </mxCell>
        <mxCell id="e8" value="" style="strokeColor=#800080;endArrow=block;rounded=0;entryX=0.462;entryY=0;entryDx=0;entryDy=0;entryPerimeter=0;" parent="1" source="VME0QEks1lH5eawWRZ92-3" target="VME0QEks1lH5eawWRZ92-8" edge="1">
          <mxGeometry as="geometry">
            <mxPoint x="919.1900000000002" y="398.85" as="sourcePoint" />
            <mxPoint x="920.8151258770121" y="490" as="targetPoint" />
            <Array as="points" />
          </mxGeometry>
        </mxCell>
        <mxCell id="VME0QEks1lH5eawWRZ92-3" value="&lt;div style=&quot;background-color: rgb(255, 255, 254); font-family: Consolas, &amp;quot;Courier New&amp;quot;, monospace; line-height: 19px; white-space: pre;&quot;&gt;&lt;font style=&quot;font-size: 10px;&quot;&gt;&lt;span style=&quot;color: rgb(162, 40, 137);&quot;&gt;deliveries&lt;/span&gt;.&lt;span style=&quot;color: rgb(162, 40, 137);&quot;&gt;v1&lt;/span&gt;.&lt;span style=&quot;color: rgb(162, 40, 137);&quot;&gt;events&lt;/span&gt;&lt;/font&gt;&lt;/div&gt;" style="rounded=1;whiteSpace=wrap;html=1;" parent="1" vertex="1">
          <mxGeometry x="850" y="360" width="140" height="25" as="geometry" />
        </mxCell>
        <mxCell id="ADlQXPeRPk5035y0EgBW-2" style="edgeStyle=orthogonalEdgeStyle;rounded=0;orthogonalLoop=1;jettySize=auto;html=1;entryX=0;entryY=0.5;entryDx=0;entryDy=0;entryPerimeter=0;" edge="1" parent="1" source="VME0QEks1lH5eawWRZ92-7" target="ADlQXPeRPk5035y0EgBW-10">
          <mxGeometry relative="1" as="geometry">
            <mxPoint x="1140" y="230" as="targetPoint" />
          </mxGeometry>
        </mxCell>
        <mxCell id="VME0QEks1lH5eawWRZ92-7" value="Delivery Tracking" style="rounded=1;whiteSpace=wrap;html=1;" parent="1" vertex="1">
          <mxGeometry x="860" y="200" width="120" height="60" as="geometry" />
        </mxCell>
        <mxCell id="ADlQXPeRPk5035y0EgBW-1" style="edgeStyle=orthogonalEdgeStyle;rounded=0;orthogonalLoop=1;jettySize=auto;html=1;entryX=0;entryY=0.5;entryDx=0;entryDy=0;entryPerimeter=0;" edge="1" parent="1" source="VME0QEks1lH5eawWRZ92-8" target="ADlQXPeRPk5035y0EgBW-11">
          <mxGeometry relative="1" as="geometry">
            <mxPoint x="1140" y="510" as="targetPoint" />
          </mxGeometry>
        </mxCell>
        <mxCell id="VME0QEks1lH5eawWRZ92-8" value="Courier Management" style="rounded=1;whiteSpace=wrap;html=1;" parent="1" vertex="1">
          <mxGeometry x="860" y="470" width="130" height="60" as="geometry" />
        </mxCell>
        <mxCell id="VME0QEks1lH5eawWRZ92-10" value="Eureka Server:8761&lt;div&gt;Service Registry&lt;/div&gt;" style="rounded=1;whiteSpace=wrap;html=1;" parent="1" vertex="1">
          <mxGeometry x="640" y="330" width="120" height="55" as="geometry" />
        </mxCell>
        <mxCell id="VME0QEks1lH5eawWRZ92-11" value="&lt;div&gt;iDelivery-Gateway:9999&lt;/div&gt;&lt;div&gt;Circuit Breaker /&lt;/div&gt;&lt;div&gt;&amp;nbsp;Retry /&amp;nbsp;&lt;/div&gt;&lt;div&gt;Fallback&lt;/div&gt;" style="rounded=1;whiteSpace=wrap;html=1;" parent="1" vertex="1">
          <mxGeometry x="380" y="325" width="150" height="65" as="geometry" />
        </mxCell>
        <mxCell id="VME0QEks1lH5eawWRZ92-13" value="Cliente&lt;br&gt;Requisições HTTP" style="rounded=1;whiteSpace=wrap;html=1;" parent="1" vertex="1">
          <mxGeometry x="160" y="327.5" width="120" height="60" as="geometry" />
        </mxCell>
        <mxCell id="ADlQXPeRPk5035y0EgBW-10" value="&lt;font style=&quot;font-size: 11px;&quot;&gt;DeliveryDB&lt;/font&gt;&lt;div&gt;&lt;font style=&quot;font-size: 11px;&quot;&gt;postgres:5433&lt;/font&gt;&lt;/div&gt;" style="strokeWidth=2;html=1;shape=mxgraph.flowchart.database;whiteSpace=wrap;" vertex="1" parent="1">
          <mxGeometry x="1040" y="195" width="90" height="70" as="geometry" />
        </mxCell>
        <mxCell id="ADlQXPeRPk5035y0EgBW-11" value="&lt;font style=&quot;font-size: 11px;&quot;&gt;CourierDB&lt;/font&gt;&lt;div&gt;&lt;font style=&quot;font-size: 11px;&quot;&gt;postgres:5432&lt;/font&gt;&lt;/div&gt;" style="strokeWidth=2;html=1;shape=mxgraph.flowchart.database;whiteSpace=wrap;" vertex="1" parent="1">
          <mxGeometry x="1040" y="465" width="90" height="70" as="geometry" />
        </mxCell>
        <mxCell id="ADlQXPeRPk5035y0EgBW-19" value="&lt;font style=&quot;font-size: 11px;&quot;&gt;/couriers&lt;/font&gt;" style="text;html=1;align=center;verticalAlign=middle;resizable=0;points=[];autosize=1;strokeColor=none;fillColor=none;" vertex="1" parent="1">
          <mxGeometry x="285" y="330" width="70" height="30" as="geometry" />
        </mxCell>
        <mxCell id="ADlQXPeRPk5035y0EgBW-20" value="&lt;font style=&quot;font-size: 11px;&quot;&gt;/deliveries&lt;/font&gt;" style="text;html=1;align=center;verticalAlign=middle;resizable=0;points=[];autosize=1;strokeColor=none;fillColor=none;" vertex="1" parent="1">
          <mxGeometry x="285" y="355" width="70" height="30" as="geometry" />
        </mxCell>
      </root>
    </mxGraphModel>
  </diagram>
</mxfile>
